<svg xmlns="http://www.w3.org/2000/svg" viewBox="0 0 82 82"><defs><style>.cls-1{fill:#696868;}.cls-2{fill:#c6433d;}.cls-3,.cls-4,.cls-5,.cls-6{fill:none;stroke:#696868;stroke-miterlimit:10;}.cls-3,.cls-5{stroke-width:1.57px;}.cls-4,.cls-5,.cls-6{stroke-linecap:round;}.cls-4{stroke-width:1.35px;}.cls-6{stroke-width:1.26px;}</style></defs><title>2-icon-red-brown</title><g id="Layer_2" data-name="Layer 2"><g id="Outline_Logo" data-name="Outline Logo"><path class="cls-1" d="M75.67,1.78H6.33A4.33,4.33,0,0,0,2,6.11V75.45a4.33,4.33,0,0,0,4.33,4.33H75.67A4.33,4.33,0,0,0,80,75.45V6.11A4.33,4.33,0,0,0,75.67,1.78Zm1.62,74.31H4.71V4.59H77.29Z"/></g><path class="cls-2" d="M43.82,23.07a38.25,38.25,0,0,0-4,.92c-1.09-.29-2.21-.54-3.37-.74-10.08-1.77-21.11,6.39-20.3,18.27.76,11.26,8.46,19.62,18.66,19.62a19.49,19.49,0,0,0,5.67-.86,19.26,19.26,0,0,0,5,.67c10.2,0,17.91-8.35,18.67-19.61C64.93,29.46,53.91,21.29,43.82,23.07Z"/><path class="cls-3" d="M45.58,23.91a40.92,40.92,0,0,0-4,.92c-1.09-.29-2.21-.53-3.37-.74-10.09-1.77-21.11,6.39-20.31,18.28C18.64,53.63,26.34,62,36.54,62a19.49,19.49,0,0,0,5.67-.86,19.27,19.27,0,0,0,5,.68c10.2,0,17.9-8.36,18.67-19.62C66.69,30.3,55.67,22.14,45.58,23.91Z"/><path class="cls-4" d="M31.73,28c-3.14,1.23-7.55,3.59-9.19,7.78-.12.29-.21.58-.3.87"/><path class="cls-5" d="M41.88,24.61c2.25-2,5.21-5.35,5.2-9.1,0-.26,0-.52,0-.76"/><path class="cls-6" d="M43.78,22.9c2.36.38,5.89.56,8.29-1.35.17-.13.32-.27.47-.41"/><path class="cls-6" d="M35,20.69c1.88,1.48,4.88,3.34,7.91,2.83a5.8,5.8,0,0,0,.6-.13"/></g></svg>