<svg id="Layer_1" data-name="Layer 1" xmlns="http://www.w3.org/2000/svg" viewBox="0 0 300 300"><defs><style>.cls-1{fill:#010101;}</style></defs><title>bean</title><path class="cls-1" d="M276.34,14.64c-2,1-2.51,1.92-3.26,6.18a270,270,0,0,1-35,93.81A271.74,271.74,0,0,1,67.52,238.82a270.7,270.7,0,0,1-56.73,7c-7,.12-7.35.17-8.72,1.55a5.18,5.18,0,0,0,.09,7.49C4,256.46,13.74,262,20.57,265.47a192.15,192.15,0,0,0,278.34-186,198.76,198.76,0,0,0-13.84-59c-1.4-3.49-1.81-4.29-2.55-5a5.43,5.43,0,0,0-6.17-.88Zm-33,126.05c2.14.88,2.89,1.77,4.63,5.74a65.62,65.62,0,0,1,4.66,16.19c.35,2.31.4,3.23.4,8.58,0,6.6-.17,8.4-1.34,13.55-1,4.26-2.89,9.69-4,11.41a7,7,0,0,1-9.38,1.8,6.84,6.84,0,0,1-2.63-3.12,4.63,4.63,0,0,1-.49-2.74,8.12,8.12,0,0,1,.86-3.95,47.16,47.16,0,0,0,3-12.09,65.18,65.18,0,0,0-.34-12.38,49.54,49.54,0,0,0-3.89-12.61c-1.06-2.32-1.06-2.35-1.06-4a5,5,0,0,1,.46-2.69,7.09,7.09,0,0,1,6.69-4.06,5.33,5.33,0,0,1,2.46.4Zm-74.94,72.05c2.63.83,4.23,2.83,4.69,5.89a82.62,82.62,0,0,1-.12,13.21,61,61,0,0,1-14.52,32.63c-2.89,3.32-3.86,3.95-6.49,4.06a6.37,6.37,0,0,1-4.47-1.23,7.19,7.19,0,0,1-2.57-7.66c.34-1.23.6-1.58,2.12-3.32a46.77,46.77,0,0,0,12-25.19,47.34,47.34,0,0,0,.31-7.49c0-3.06.09-5.83.17-6.18a7.42,7.42,0,0,1,1.8-3.17,7.1,7.1,0,0,1,7-1.55Z"/><path class="cls-1" d="M259.71,20.36A8.45,8.45,0,0,0,254.62,24a55.56,55.56,0,0,0-3.26,8,7.69,7.69,0,0,0,4.08,8.17,7.58,7.58,0,0,0,9.61-2.43,52.54,52.54,0,0,0,3.06-7,8,8,0,0,0,.43-3,5.26,5.26,0,0,0-.57-3,8,8,0,0,0-5.38-4.4,6.1,6.1,0,0,0-2.88,0Z"/><path class="cls-1" d="M233.88,41.72a47.24,47.24,0,0,0-11.78,2.35,46.71,46.71,0,0,0-31.45,37,49.46,49.46,0,0,0,1.77,22l.63,2,1.54.11a61.54,61.54,0,0,1,29.48,10.35,7.79,7.79,0,0,0,1.26.8c.06,0,1-1.31,2-2.91a265.41,265.41,0,0,0,25.53-50.07c2.26-6,5.55-15.47,5.55-16.13,0-.28-1.57-1-4.54-2.23a48.46,48.46,0,0,0-11.53-3,80.76,80.76,0,0,0-8.49-.26Z"/><path class="cls-1" d="M183.87,119.44a48.4,48.4,0,0,0-22.9,9.23,58.2,58.2,0,0,0-9.38,9.38A47.66,47.66,0,0,0,142,164.9l-.06,2,1.83,1.12a55.68,55.68,0,0,1,15.13,14l1.83,2.46,2.74-2.09a284.73,284.73,0,0,0,48.72-47.38c3.21-4,5.24-6.64,5.15-6.81a47.93,47.93,0,0,0-5-3.26,48.92,48.92,0,0,0-15.21-5.37,66.34,66.34,0,0,0-13.33-.26Z"/><path class="cls-1" d="M106.27,171.82A47,47,0,0,0,64,212.36a71.56,71.56,0,0,0,0,11.53c.12.91.34,2.4.52,3.29l.28,1.57.74-.12c.41,0,2.66-.6,5-1.2A270.34,270.34,0,0,0,137.21,201c4.69-2.61,12.41-7.27,12.41-7.5a34.75,34.75,0,0,0-3.37-4.68,47.4,47.4,0,0,0-29.51-16.62,82.41,82.41,0,0,0-10.47-.34Z"/><path class="cls-1" d="M46.68,217.23c-.92.17-28,9-28.82,9.46a7.46,7.46,0,0,0,3.63,14c1.17,0,2-.23,7.17-1.83,8.93-2.75,21.51-6.92,22.65-7.55a9.35,9.35,0,0,0,3-2.74,8.57,8.57,0,0,0,1.09-3.75,7.64,7.64,0,0,0-8.75-7.66Z"/></svg>