<svg id="Layer_1" data-name="Layer 1" xmlns="http://www.w3.org/2000/svg" viewBox="0 0 300 300"><defs><style>.cls-1{fill:#010101;}</style></defs><title>broccoli</title><path class="cls-1" d="M138.38,7.88a77.2,77.2,0,0,0-30.55,8.86c-4.89,2.7-5.7,3.55-5.7,5.9,0,2,.63,2.85,3.59,4.89a70.71,70.71,0,0,1,27.73,37c1,3.23,1.09,3.62.81,5.06a4.83,4.83,0,0,1-4.71,4.08,4.92,4.92,0,0,1-4.08-1.55c-.87-.88-1.09-1.26-1.72-3.41a60.61,60.61,0,0,0-26-34.1c-2.75-1.69-8.23-4.46-8.62-4.32a15,15,0,0,1-3-.74,50.19,50.19,0,0,0-7.66-2A68.86,68.86,0,0,0,55,27.25a66.29,66.29,0,0,0-50.31,41A70,70,0,0,0,.42,85.15a89.45,89.45,0,0,0,0,14.27A65.44,65.44,0,0,0,19.9,139.33a63.57,63.57,0,0,0,15.86,11.35c8.4,4.26,13.64,5.7,28,7.6a415.15,415.15,0,0,0,60.4,3c5-.1,9.53-.28,10-.31s3.16-.21,5.94-.32c10.09-.46,13.25-.84,20-2.53a95.54,95.54,0,0,0,11.75-3.73,5.3,5.3,0,0,0,2.42-3.27c.32-1.61-.07-2.95-1.58-5.09a71.91,71.91,0,0,1-9.18-18.67c-.87-2.85-.91-4.26-.07-5.84a4.92,4.92,0,0,1,7.77-1.54c1.09,1,1.3,1.4,2.5,4.85,3.52,10.26,8.54,18.14,15.61,24.54A65.51,65.51,0,0,0,226,166.08a89,89,0,0,0,17.55-.35,65.56,65.56,0,0,0,38.07-19.41c9.77-10.12,15.57-22.18,17.79-36.73a86.38,86.38,0,0,0-.11-18.32A67.57,67.57,0,0,0,291,67.78a66.87,66.87,0,0,0-50.14-32.34,99.2,99.2,0,0,0-15.82.35A69.41,69.41,0,0,0,209.39,40l-2.53,1-.42-.6a77.5,77.5,0,0,0-20.78-20.08A76.27,76.27,0,0,0,150.19,8c-2.43-.21-9.77-.24-11.88-.07Z"/><path class="cls-1" d="M188.86,166.82a14.75,14.75,0,0,0-2.82,2.49,88.1,88.1,0,0,0-19.47,32.42,35,35,0,0,1-1.2,3.3,270.7,270.7,0,0,0,4.78-30.09c.25-2.88.25-3-.21-3.9a2.94,2.94,0,0,0-1.47-1.37c-1.13-.57-1-.57-5.35.42a96.92,96.92,0,0,1-20.92,2.6c-5.83.14-6.08.17-7.13.7a4.35,4.35,0,0,0-1.72,1.48l-.67,1-.14,7A142,142,0,0,1,129.37,212c-1,4.78-2,8.3-2.46,8.61a1.8,1.8,0,0,1-2.07-.1,9.31,9.31,0,0,1-1-2.46c-3-10.66-10.76-27.64-18.18-39.94-2.95-4.92-2.67-4.78-9.07-5-5.69-.18-14-.67-20.49-1.23-5.42-.49-5.87-.42-6.82.77-1.3,1.69-1,2.39,2.77,7.18a137.54,137.54,0,0,1,16.74,25.91,108.64,108.64,0,0,1,8.82,23.52,96.4,96.4,0,0,1,.07,47.28,12.5,12.5,0,0,0-.21,6.26,10.14,10.14,0,0,0,5.66,6.05c1.2.45,6,1.12,14,1.89,26,2.64,47.29,1.69,64-2.81,5.45-1.48,7-2.25,8.65-4.29,2.14-2.7,2.49-4.92,1.72-10.58-3.83-27.63-.07-52.31,11.46-75.38a126.56,126.56,0,0,1,7.88-13.57c1.54-2.32,1.93-3.3,1.93-5.06,0-2.78-1.05-3.94-4.75-5.31a75.28,75.28,0,0,1-13.18-6.08c-1.79-1-2.07-1.16-3.48-1.23a4.51,4.51,0,0,0-2.5.42Z"/></svg>