<svg id="Layer_1" data-name="Layer 1" xmlns="http://www.w3.org/2000/svg" viewBox="0 0 300 300"><defs><style>.cls-1{fill:#010101;}</style></defs><title>carrot</title><path class="cls-1" d="M242,19.23c-2.66,1.35-8.24,5.89-12.18,9.91A67.49,67.49,0,0,0,212,62a15.06,15.06,0,0,0-.5,4.55c.14,2.55.78,3.79,3.16,6a144.69,144.69,0,0,1,24.08,28.08c1.49,2.31,3.12,4.76,3.58,5.44a7.2,7.2,0,0,0,4,3c2.31.68,11.43.07,17.22-1.13,12.75-2.7,23.51-8.56,33.66-18.43,2.52-2.45,2.56-2.52,2.56-3.48,0-1.39-.57-2.1-2.7-3.2a74.76,74.76,0,0,0-11.22-4.4,66.25,66.25,0,0,0-16-2.52,8.87,8.87,0,0,1-2.17-.14A13.67,13.67,0,0,1,268.94,74a68.37,68.37,0,0,0,11.43-22.73c1-3.27,1-4.33.18-5.29-1.17-1.38-2.2-1.53-7.07-1a68.81,68.81,0,0,0-11.68,2.45c-4.65,1.38-4.3,1.1-4.58,3.37a72,72,0,0,1-4.79,16.16c-1.18,2.45-2.06,3.23-4,3.37a4,4,0,0,1-4.51-3.91c-.07-1.1,0-1.56,1-3.83a61.27,61.27,0,0,0,4-13.42c.75-4.51.64-12.61-.21-18.54-.46-3.23-1.74-8.73-2.35-9.91a3,3,0,0,0-4.22-1.42Z"/><path class="cls-1" d="M175.4,63.3a32,32,0,0,0-18.18,9c-2.27,2.24-10.61,11.22-18.57,20-37.17,40.87-81.88,94.31-116,138.58-5.75,7.42-18,23.83-19.46,26a16.16,16.16,0,0,0-2.84,8.66,16.74,16.74,0,0,0,6,12.15,17.58,17.58,0,0,0,6.25,3.16,16.47,16.47,0,0,0,7.42-.11c2.09-.57,1.31-.18,25.53-13.42C125.8,223.33,193,185.94,225.93,166.87c6.47-3.76,7.78-4.68,10.55-7.42a31.15,31.15,0,0,0,8.66-16,22.47,22.47,0,0,0,.46-5.93c0-6.81-1-9.73-7.13-21-9.8-18-15.91-25.64-30.22-38C203,74,197.14,69.23,195.18,67.84a27.58,27.58,0,0,0-19.77-4.61Zm-15.19,43c2.09,1,13.84,13.11,21,21.77,6.47,7.78,15.77,20.74,16.66,23.19a6.41,6.41,0,0,1,0,3.83,5.38,5.38,0,0,1-8.38,2.31,50.36,50.36,0,0,1-3.34-4.76A204.13,204.13,0,0,0,159.28,120c-3.94-4-6.17-6.39-6.42-6.93a5.48,5.48,0,0,1,3.33-6.92,5.06,5.06,0,0,1,4,.18Zm-22.44,23.19c1.45.85,10.83,10,14.34,14,4.58,5.29,10.33,12.61,13.78,17.65,2.77,4.05,5,7.74,5.29,8.73a5.37,5.37,0,0,1-.93,4.23c-1.81,2.45-6,2.77-8,.57a32.07,32.07,0,0,1-2-2.88A130.59,130.59,0,0,0,148.88,156,133.08,133.08,0,0,0,136,142.23c-5.21-4.83-5.32-5-5.82-6a5.85,5.85,0,0,1,.07-4.26,5,5,0,0,1,1.81-2.1,5.15,5.15,0,0,1,5.65-.43Zm-22.3,22.55c.92.46,7.06,6.11,10.33,9.44a121.14,121.14,0,0,1,13.46,16.8c1.13,1.74,2.66,4.12,3.41,5.29,1.49,2.34,2,3.73,1.77,5.43a5.53,5.53,0,0,1-8.45,3.84c-.85-.57-1.85-2-4.58-6.61a116.53,116.53,0,0,0-8.81-11.89c-1.17-1.39-4.83-5.19-8.09-8.45-6.43-6.36-6.82-6.89-6.85-9a5.81,5.81,0,0,1,4.08-5.18,6.49,6.49,0,0,1,3.69.32ZM92.32,175.15c.81.25,1.7.85,3.62,2.55,1.38,1.25,3.41,3,4.47,4a83.42,83.42,0,0,1,12,14.13c4.69,7,5.36,8.38,5.18,10.58a5.09,5.09,0,0,1-5.25,4.94c-2.45,0-3.59-.86-5.44-4.09A75.79,75.79,0,0,0,89.51,186.3c-2.77-2.38-3.34-3-3.76-4a5.13,5.13,0,0,1,2.2-6.53,4.64,4.64,0,0,1,4.37-.64Z"/></svg>