<svg id="Layer_1" data-name="Layer 1" xmlns="http://www.w3.org/2000/svg" viewBox="0 0 300 300"><defs><style>.cls-1{fill:#010101;}</style></defs><title>lettuce</title><path class="cls-1" d="M172,87.54q-3.18,27.06-8.64,53.79A183.7,183.7,0,0,1,207,105.05a5.35,5.35,0,1,1,5.48,9.18h0a172.85,172.85,0,0,0-54.64,51.69q-3.13,12.75-6.78,25.37a418.41,418.41,0,0,1,54.36-45.21,5.34,5.34,0,0,1,6.11,8.77A407.32,407.32,0,0,0,144,214q-5.41,16.46-11.71,32.6a364,364,0,0,1,59.31-39.4,5.34,5.34,0,1,1,5,9.43,353.52,353.52,0,0,0-73.35,51.93q-6.81,15.72-14.44,31.06c1.81,0,3.63.05,5.44,0A157,157,0,0,0,234,243.18a35.74,35.74,0,0,0,5.33-37.1,16.57,16.57,0,0,1,7.44-21.25,32.81,32.81,0,0,0,14.45-42.7,24.37,24.37,0,0,1,2.48-24.59,19,19,0,0,0-2.23-25,32,32,0,0,1-9.68-27.32,18.71,18.71,0,0,0-9.68-18.88,19.48,19.48,0,0,1-10.23-17.6,12.81,12.81,0,0,0-17.13-12.35,25.18,25.18,0,0,1-28.42-8.26,20,20,0,0,0-35.5,9.34,33.24,33.24,0,0,1-23.33,27A20.56,20.56,0,0,0,114,57.53,36.41,36.41,0,0,1,85.55,81.79a10.28,10.28,0,0,0-8.43,11.85,10.47,10.47,0,0,0,.73,2.45,26.44,26.44,0,0,1-17.07,36.24,23.8,23.8,0,0,0-16.46,29.34l.18.61a54.73,54.73,0,0,1-4.19,42.34A63.54,63.54,0,0,0,87.93,298q4.63.6,9.29,1,2.4-4.75,4.73-9.54a141.31,141.31,0,0,0-26.26-70.9,5.34,5.34,0,0,1,8.66-6.26,151.85,151.85,0,0,1,25.88,59.42q5.37-12,10.24-24.19A204.21,204.21,0,0,0,98,168.87a5.35,5.35,0,0,1,9.48-4.94,214.79,214.79,0,0,1,21.06,62.22q6.07-17,11.17-34.21a153.93,153.93,0,0,0-13.39-63.2,5.34,5.34,0,0,1,9.76-4.36,164.71,164.71,0,0,1,11.66,37.7,634.65,634.65,0,0,0,13.61-75.79A5.35,5.35,0,1,1,172,87.54Z"/></svg>