<svg id="Layer_1" data-name="Layer 1" xmlns="http://www.w3.org/2000/svg" viewBox="0 0 300 300"><defs><style>.cls-1{fill:#010101;}</style></defs><title>onion</title><path class="cls-1" d="M137.43.67a10.27,10.27,0,0,0-6.89,7.52c-.1.6-.28,3.66-.35,6.79-.21,9.52-1.09,21.76-1.9,26.65a49.94,49.94,0,0,1-13.85,27.28A47.19,47.19,0,0,1,98.3,79.49C74.11,89.72,52,104.13,36.22,119.92c-11.78,11.78-19.94,23.9-24.79,37-4.82,12.79-6.12,25.45-4.29,41.83a107.68,107.68,0,0,0,20.64,53.16,120,120,0,0,0,16.59,17.79c11.53,9.84,24.93,17.26,34.39,19,6.36,1.19,16.38,1.23,26.57.1a50.22,50.22,0,0,1,10.69-.31,25.54,25.54,0,0,1,10.2,3.93,52.17,52.17,0,0,0,15.08,6.33,42.78,42.78,0,0,0,21.3-1,51.61,51.61,0,0,0,11.64-5.59,22.43,22.43,0,0,1,10.44-4c2-.25,2.85-.21,6.75.21a112.08,112.08,0,0,0,17.19,1c7.95,0,10.13-.14,14.21-1.05,8.68-2,22.07-9.67,32.94-18.95a137.9,137.9,0,0,0,12.51-12.62c14.84-17.76,22.82-37.45,25.11-61.84a162.21,162.21,0,0,0,0-18.46c-1.83-15.65-7.56-29.6-17.79-43.28a146.58,146.58,0,0,0-25-25.24,220.77,220.77,0,0,0-46.2-27.49c-7.59-3.31-9.84-4.54-13.57-7.32a49,49,0,0,1-18.74-30c-1-5.41-1.93-17.79-2.18-27.95-.14-6.71-.21-7.35-.63-8.47A11,11,0,0,0,163.55,1L162.29.42l-12,0c-9.24,0-12.16,0-12.87.24ZM91.34,96.09a4.63,4.63,0,0,1,2.88,4.15c0,1.37-.66,2.53-2.21,3.83a118.48,118.48,0,0,0-10.93,11.32,135.33,135.33,0,0,0-26.51,57.44C50,195.3,51.19,220,57.77,243.15c1.26,4.39,1.44,5.55,1,7A6.06,6.06,0,0,1,55,253.83a6.18,6.18,0,0,1-5-.67c-1-.63-2.6-2.88-4.68-6.25C32.1,225.32,27.25,200.43,31.68,177c3.9-20.61,14.49-40.29,31.68-58.78A216.28,216.28,0,0,1,84,99c3.9-3.13,5.31-3.69,7.24-2.88Zm121.22.17c2.43,1.13,13.5,10.9,20.67,18.18,21.06,21.48,32.88,43.63,36.18,68a129.69,129.69,0,0,1,.42,19.27,102.46,102.46,0,0,1-16.42,47.35c-2.25,3.38-2.77,3.94-3.93,4.5-4.78,2.15-9.81-2.14-8.16-7,1.93-5.52,4.75-18.67,5.84-27.14a156.06,156.06,0,0,0,.45-33.82A137,137,0,0,0,221.18,118,92.92,92.92,0,0,0,208,103.79c-1.2-1.09-1.48-1.52-1.69-2.39A4.62,4.62,0,0,1,209.19,96a4.36,4.36,0,0,1,3.41.28Zm-80.19,3.2a4.9,4.9,0,0,1,2.6,5,27.77,27.77,0,0,1-1.19,3.38c-3.66,8.68-8,29-10.52,50a468.69,468.69,0,0,0-.66,107.79c.84,7.35.84,7.52-.71,9.28a5.05,5.05,0,0,1-4.36,1.93c-2.53,0-3.37-.49-5.55-3.33-5.77-7.6-12-20-15.79-31.4A127.58,127.58,0,0,1,90,209.57a171.42,171.42,0,0,1,.35-20.42c2.25-22.79,9.63-44.76,22.57-67.36,4.78-8.37,12.73-20.32,14.34-21.59a5.05,5.05,0,0,1,5.07-.74Zm40.22,1c1.79,1.2,9.56,12.76,15.26,22.68,13.39,23.38,20.81,46.82,22.43,70.66a169.09,169.09,0,0,1-.42,21.45c-2.29,21.41-9.64,41.62-21,57.79-2.14,3.1-2.85,3.73-4.5,4.05a5.73,5.73,0,0,1-5.69-1.59c-1.69-1.75-1.8-2.84-1-8.71,1.37-10.31,2.46-25.56,2.88-40,1.09-36.49-2.71-77-9.88-105.61-1.62-6.4-2.74-10-4.18-13.08-.95-2-1.09-2.53-1.09-3.69A4.39,4.39,0,0,1,168,100.1a5.81,5.81,0,0,1,4.64.35Z"/></svg>