<svg id="Layer_1" data-name="Layer 1" xmlns="http://www.w3.org/2000/svg" viewBox="0 0 300 300"><defs><style>.cls-1{fill:#010101;}</style></defs><title>pepper</title><path class="cls-1" d="M122.91.87c-2.55,1.57-2.69,5.05-.32,7.32.57.5,1.74,1.6,2.56,2.38,4.48,4.19,8.56,11,11.26,18.82,1.49,4.29,1.38,7.17-.39,10.68-.89,1.78-1.89,2.85-7.42,8-2.06,1.88-3.7,3.44-3.66,3.48a55.39,55.39,0,0,0,5.47-1.78,83.15,83.15,0,0,1,13.42-2.62c6.67-.5,7-.5,11.22,0a47.06,47.06,0,0,1,11.75,2.76,25.72,25.72,0,0,0,2.81,1s-2-1.7-4.58-3.69c-7.74-6.07-9.16-7.85-12-15.3-4.37-11.22-10.94-20.1-19.81-26.74-1.49-1.1-3.73-2.63-5-3.34C125.44.16,124.37,0,123,.84Z"/><path class="cls-1" d="M145,56.49a32.77,32.77,0,0,0-4.76.74c-1.35.32-2.88.64-3.44.71a8.52,8.52,0,0,0-2.1.64c-.6.25-2.06.78-3.19,1.17A46.14,46.14,0,0,0,121.71,65c-4.76,3.59-11,10.94-15,17.62A103.07,103.07,0,0,0,102,93.34c-4.37,11.69-7.42,26.35-9.69,46.48-.32,2.81-.64,5.47-.71,5.9s-.22,2.06-.29,3.66l-.14,2.87-.5-4.12c-.74-6.25-1.35-13.7-1.45-19.74A135.62,135.62,0,0,1,94,89.9a103.13,103.13,0,0,1,5-13.21c.5-.92,1.28-2.41,1.74-3.34a43.78,43.78,0,0,1,2.66-4.44c1-1.52,1.89-2.84,1.92-2.91s-3.83-2.16-6.07-3A49.67,49.67,0,0,0,72.78,60.5c-24.07,3.94-38.6,21.23-43,51.27-1.45,9.87-1.63,24.08-.42,36.72,3,32.59,14.34,71.3,30.07,102.69,8.38,16.69,17.47,30.25,25.64,38.1,8.55,8.23,10.4,9.26,16.72,9.51,3,.07,3.34.07,5.22-.49a28.13,28.13,0,0,0,3.13-1.14,18.29,18.29,0,0,0,7.2-6.68c.5-.81,1.57-2.41,2.35-3.58s2.2-3.52,3.12-5.29c1.24-2.31,1.78-3.13,1.92-2.91A72.8,72.8,0,0,0,135,292.26c3.87,4.15,5.58,5.43,8.77,6.68l1.92.74h8.66l1.85-.71c3.69-1.42,5.25-2.63,9.87-7.85A87.71,87.71,0,0,0,173.91,281a15,15,0,0,1,1.2-1.78,18.26,18.26,0,0,1,1.5,2.63c.78,1.46,2.2,3.87,3.19,5.36s2.13,3.27,2.52,3.94c4.23,6.54,12.93,9.27,20.56,6.47a17.59,17.59,0,0,0,6-3.73c.89-.82,2.67-2.42,3.91-3.48,15.3-13.18,32.45-44.07,44.45-80,11.44-34.3,16.27-67.93,13.39-93.53C268.18,95,260.12,78.93,247.12,70.27a44.75,44.75,0,0,0-14.77-6.54c-12.28-3.12-23.93-2.34-33.48,2.2A41.77,41.77,0,0,0,193,69.2a6.63,6.63,0,0,0,1,1.92,66.48,66.48,0,0,1,4.69,9c.92,2.2,3.48,10.09,4.22,13,.43,1.7,2,10.51,1.85,10.79a25.93,25.93,0,0,1-1.39-3.16,134,134,0,0,0-7.59-16.9c-5.69-10.19-14-18.61-22.62-22.8a64.68,64.68,0,0,0-10.66-3.62,68.56,68.56,0,0,0-17.43-.78Z"/></svg>