<svg id="Layer_1" data-name="Layer 1" xmlns="http://www.w3.org/2000/svg" viewBox="0 0 300 300"><defs><style>.cls-1{fill:#010101;}</style></defs><title>power</title><path class="cls-1" d="M150,0h0C67.5,0,0,67.5,0,150H0c0,82.5,67.5,150,150,150h0c82.5,0,150-67.5,150-150h0C300,67.5,232.5,0,150,0ZM138.12,74a11.88,11.88,0,0,1,23.76,0v83.22a11.88,11.88,0,0,1-23.76,0ZM211,212.63A86.26,86.26,0,1,1,89.07,90.57c1.41-1.42,2.88-2.78,4.39-4.09A11.87,11.87,0,0,1,109,104.41a62.55,62.55,0,1,0,81.55-.32A11.88,11.88,0,1,1,206,86a86.26,86.26,0,0,1,9.57,121.62C214.13,209.37,212.59,211,211,212.63Z"/></svg>