<svg id="Layer_1" data-name="Layer 1" xmlns="http://www.w3.org/2000/svg" viewBox="0 0 300 300"><defs><style>.cls-1{fill:#010101;}</style></defs><title>strawberry</title><path class="cls-1" d="M148.11.62c-.81.43-2.71,2.68-11.25,13.29-5.66,7-10.69,13.08-11.18,13.54a4.66,4.66,0,0,1-1.9,1c-.74.14-6.93-.14-23.73-1.16C82.93,26.25,77.12,26,76.49,26.15a4.81,4.81,0,0,0-1.83,1.26A4.44,4.44,0,0,0,73.89,33c.35.67,2.74,2.53,10.93,8.76,11.68,8.82,11.46,8.58,11.46,11.18,0,2.35,0,2.32-11.56,11.07-10.9,8.23-11.11,8.4-11.46,10.3a5,5,0,0,0,3.09,5.17c.74.21,4.29.07,22.54-1.06,11.91-.73,22.39-1.33,23.27-1.33,2.74,0,2.85.07,8.65,7.24,2.77,3.45,7.59,9.39,10.65,13.18,6.12,7.53,6.5,7.91,8.58,7.91s2.49-.42,8-7.24c2.78-3.44,7.6-9.38,10.66-13.18,6.39-7.88,6.39-7.91,9.17-7.91.88,0,11.36.6,23.27,1.33,18.25,1.13,21.8,1.27,22.54,1.06a5,5,0,0,0,3.09-5.17c-.31-1.9-.56-2.07-11.46-10.3-11.6-8.75-11.56-8.72-11.56-11.07,0-2.57-.25-2.36,11.46-11.18,10.93-8.23,11.21-8.48,11.56-10.34a5.85,5.85,0,0,0-.1-1.86,3.64,3.64,0,0,0-1.27-2.15,4.74,4.74,0,0,0-1.83-1.26c-.63-.18-6.43.1-23.59,1.16-16.52,1-23,1.33-23.69,1.16a4.59,4.59,0,0,1-1.62-.74c-.39-.32-5.41-6.36-11.18-13.5C156.82,5.93,152.74,1.12,152.25.8A4.53,4.53,0,0,0,148,.66Z"/><path class="cls-1" d="M69.43,46.3C68,46.58,66.19,47.53,62.5,50,48.05,59.48,39,72,35.57,87.26a84.09,84.09,0,0,0-1.33,22.36c2.91,40.14,26.82,101,56.39,143.57a180.86,180.86,0,0,0,21.58,26.23,94.36,94.36,0,0,0,14.1,12c4.64,3.3,6.05,4.18,8.58,5.34a30.74,30.74,0,0,0,13.5,3,35.89,35.89,0,0,0,15.43-2.53c3.73-1.44,5.56-2.6,12.52-7.77,13.14-9.77,27.73-27.07,41.38-49.07,22.18-35.79,40.35-81.25,46.19-115.74a120.06,120.06,0,0,0,2-24.18,55.72,55.72,0,0,0-2.5-17c-3.62-12-10.93-22.15-21.76-30.34a71.56,71.56,0,0,0-8.86-5.69c-1.58-.78-1.69-.81-4.08-.81s-2.49,0-3.86.67a7.53,7.53,0,0,0-3.73,3.27,5.66,5.66,0,0,0,.14,4.64c.49,1,1.09,1.51,5.38,4.78,5.13,3.9,6.54,5.24,7.87,7.56a11.34,11.34,0,0,1,1.9,7.17c0,2.53-.07,3-.59,4.46a14.11,14.11,0,0,1-3.48,5.56,15.57,15.57,0,0,1-5.84,3.72c-2.71.92-3.59.92-22-.24-10.33-.64-18.14-1-19.48-1a13.36,13.36,0,0,0-8.64,3.55c-.74.67-4.64,5.38-8.76,10.48-7.91,9.81-8.47,10.41-11.53,11.92a12.57,12.57,0,0,1-6.26,1.51,13.84,13.84,0,0,1-9-3.13c-.85-.67-3.83-4.25-8.76-10.3-4.14-5.1-7.84-9.63-8.26-10a13.74,13.74,0,0,0-8.79-4c-1-.07-9.35.35-18.45.91-18.11,1.13-20.32,1.2-22.29.67a14.58,14.58,0,0,1-10.34-9.88,15.87,15.87,0,0,1,.11-7.8c1.37-4.4,2.84-6.26,8.93-10.94,4.15-3.2,4.88-3.9,5.59-5.31,1.51-3,.21-6.15-3.2-7.76a9.48,9.48,0,0,0-6-.81Zm1.12,67.32a31.09,31.09,0,0,1,4.15,4.85c2.85,3.84,5.2,8,6,10.66,1.3,4.36-1.09,9.28-5,10.33a9.41,9.41,0,0,1-5.52-.56c-3.66-1.79-5-5-5-12.2,0-4.6.77-10.86,1.51-12.16a2.84,2.84,0,0,1,3.83-.92Zm156.8,3.55c.67.43,1,1.27,1.69,4.08,1.19,4.82,1.83,11.29,1.44,14.52a9.07,9.07,0,0,1-4.64,7.31c-1.06.57-1.41.64-3.27.64a6,6,0,0,1-3.13-.49,9.11,9.11,0,0,1-3.83-3.8c-.56-1.13-.63-1.44-.63-3.66a9.4,9.4,0,0,1,.63-4.18c1.83-5.31,7.42-14.27,9.21-14.8a3.14,3.14,0,0,1,2.53.35ZM151.45,140c1,.42,1.37.91,2.46,3.41,2.88,6.53,4.39,13.28,3.8,17a7.88,7.88,0,0,1-6.4,6.68,7.73,7.73,0,0,1-8.23-4.53c-.63-1.27-.67-1.52-.67-3.66,0-4.47,1.37-9.35,4.19-15,2.07-4.15,2.88-4.85,4.88-4Zm-48.66,17.47c.71.6,2.15,2,3.24,3.2,4.25,4.64,7,8.57,7.84,11.39,1.61,5.34-1.94,10.68-7.07,10.68a8.15,8.15,0,0,1-6.5-3.37,21.08,21.08,0,0,1-2.43-7.63c-.42-3.09-.35-12,.14-13.5a2.86,2.86,0,0,1,2.64-1.86c.67,0,1.09.21,2.14,1.09Zm94.54,2.42c.84.64,1,1.23,1.3,4.4a43.6,43.6,0,0,1-.74,13.81c-.95,3.66-2.5,5.81-5.13,7a7.44,7.44,0,0,1-5.8.07,8.68,8.68,0,0,1-4.36-8.72c.28-2.08,2.53-6.19,5.48-10,1.9-2.46,5.91-6.57,6.72-7a2.5,2.5,0,0,1,2.53.32Zm-45.14,40.54c.77.63,2.11,3.41,3.51,7.42,1.8,5.13,2.57,10.19,2,13a6.77,6.77,0,0,1-2,3.94c-3.83,4.07-9.91,3-12.55-2.25-.63-1.23-.67-1.48-.67-3.66a28.92,28.92,0,0,1,1.69-9.11,56.27,56.27,0,0,1,4.08-8.82,2.71,2.71,0,0,1,4-.56ZM101.7,216c.92.46,6.54,6.36,8.16,8.51,4.08,5.41,5.13,8.75,3.94,12.55a7.51,7.51,0,0,1-10.55,4.22c-2.6-1.34-3.94-3.45-5-7.81-.57-2.43-.6-2.74-.6-8.79s0-6.33.46-7.28a2.58,2.58,0,0,1,3.55-1.44Zm99.18.38c1.06.57,1.48,3.49,1.48,10s-.67,10.13-2.32,12.52c-2.95,4.29-8.58,4.82-12,1.09a6.81,6.81,0,0,1-1.93-5.66,7.66,7.66,0,0,1,1.12-4.18,41.22,41.22,0,0,1,2.32-4c2.5-3.76,7.7-9.52,8.93-9.88a3.77,3.77,0,0,1,2.39.21Zm-49.39,36.11c1,.42,1.47,1.13,2.74,4,2.53,6,3.66,10.62,3.52,14.56-.07,2.32-.14,2.67-.78,4a8.81,8.81,0,0,1-4.43,4.25,7.78,7.78,0,0,1-9.42-4.25,5.28,5.28,0,0,1-.67-3.3c0-4.43,1.69-10.27,4.68-16.32,1.55-3.09,2.53-3.76,4.43-2.95Z"/></svg>