<svg id="Layer_1" data-name="Layer 1" xmlns="http://www.w3.org/2000/svg" viewBox="0 0 300 300"><defs><style>.cls-1{fill:#010101;}</style></defs><title>tomato</title><path class="cls-1" d="M167.91,1.11c-.34.32-5.86,6.53-12.29,13.8C143.17,29,143.15,29,140.92,29.68a8.32,8.32,0,0,1-4.62-.09c-.54-.2-10.47-4.93-22-10.52C102,13.16,93,8.91,92.69,8.91a1.46,1.46,0,0,0-1.42,1.23c0,.26,2,6.19,4.46,13.18,5,14.24,5,14,4,15.77a4.84,4.84,0,0,1-2.53,2.3c-.39.14-5.16,1.71-10.59,3.45L72.56,49.38c-3.68,1.19-4.22,1.41-4.39,1.8a1.45,1.45,0,0,0,.19,1.74c.34.39,2.71,1,20.24,5.18C99.51,60.72,109,63,109.69,63.21a19.68,19.68,0,0,1,2.4,1c.64.32,6.57,4,13.17,8.1S137.6,80,138,80.15a5.68,5.68,0,0,0,4.36,0c.53-.27,4.11-3.7,10.94-10.5,10.47-10.43,11.43-11.27,14.33-12.76.53-.27,10.54-4.22,22.23-8.78,22.75-8.88,22.12-8.59,21.84-9.7a2,2,0,0,0-.5-.82c-.39-.35-.55-.35-19.19-.35-20.89,0-20,0-21.35-1.2a4.45,4.45,0,0,1-1.57-2.49c-.12-.53,0-5,.5-14.77.37-7.71.73-14.77.78-15.68.11-1.58.09-1.65-.32-2.08A1.38,1.38,0,0,0,167.91,1.11Z"/><path class="cls-1" d="M208.56,56.16c-1.7.36-1.2.18-14.69,5.41s-16.62,6.66-20.29,9.06-5.66,4.15-13.52,12c-8.37,8.33-9.29,9.1-12.57,10.4a17.78,17.78,0,0,1-8,1.29,15.48,15.48,0,0,1-6.91-1.45c-.73-.34-5.89-3.46-11.48-6.93s-10.85-6.67-11.69-7.13a42.39,42.39,0,0,0-6.67-3c-.79-.27-8.35-2.18-16.82-4.24-16.66-4.08-17.16-4.17-19.56-3.65s-3.85,1.39-9.36,6a130.46,130.46,0,0,0-33,41.53,121.88,121.88,0,0,0-2.07,105,131.17,131.17,0,0,0,40.48,50.14,143.14,143.14,0,0,0,68.69,27.76A123.34,123.34,0,0,0,150,299.46a115.56,115.56,0,0,0,16.64-.82,143.32,143.32,0,0,0,78.67-34.31c3.13-2.73,10.85-10.54,13.54-13.73a126.12,126.12,0,0,0,25.68-47.73,124.85,124.85,0,0,0,4.15-23c.32-3.35.32-16.73,0-20.11A120.88,120.88,0,0,0,271.6,106.9,133.45,133.45,0,0,0,226,61.68,69.06,69.06,0,0,0,217.13,57,16.85,16.85,0,0,0,208.56,56.16ZM60.89,104.48A7.86,7.86,0,0,1,66,115.13a21.21,21.21,0,0,1-1.75,2.75,95.15,95.15,0,0,0-14.36,29.39,89.28,89.28,0,0,0,6.34,65,98.39,98.39,0,0,0,16.46,23.33c2,2.16,2.6,3.1,3,4.88A7.76,7.76,0,0,1,73.51,247a7.26,7.26,0,0,1-6.13,2.17c-2.35-.12-3.47-.73-5.92-3.22A108.91,108.91,0,0,1,51,233.29a106.87,106.87,0,0,1-19.88-54.5,149.1,149.1,0,0,1,0-14.95,106,106,0,0,1,10.41-38.66c3.88-8,10.17-17.8,12.59-19.56A7.69,7.69,0,0,1,60.89,104.48Z"/></svg>