<svg id="Layer_1" data-name="Layer 1" xmlns="http://www.w3.org/2000/svg" viewBox="0 0 300 300"><defs><style>.cls-1{fill:#010101;}</style></defs><title>add</title><path class="cls-1" d="M225.6,138.34H161.66V74.4a11.66,11.66,0,0,0-23.32,0v63.94H74.4A11.63,11.63,0,0,0,62.74,150,11.83,11.83,0,0,0,74.4,161.65h63.94V225.6A11.83,11.83,0,0,0,150,237.25a11.62,11.62,0,0,0,11.65-11.65V161.66H225.6A11.62,11.62,0,0,0,237.25,150C236.94,143.7,231.9,138.34,225.6,138.34Z"/><path class="cls-1" d="M150,.38C67.47.38.38,67.47.38,150S67.47,299.62,150,299.62,299.62,232.53,299.62,150,232.53.38,150,.38Zm0,276.25A126.63,126.63,0,1,1,276.63,150,126.64,126.64,0,0,1,150,276.63Z"/></svg>