<svg id="Layer_1" data-name="Layer 1" xmlns="http://www.w3.org/2000/svg" viewBox="0 0 300 300"><defs><style>.cls-1{fill:#010101;}</style></defs><title>eggplant</title><path class="cls-1" d="M249.18.27a7.09,7.09,0,0,0-4.68,4.29c-.52,1.3-.38,3.37.43,5.69,3,8.9,3.16,21.41.42,33.4-1.2,5.31-2.36,7.81-4.85,10.48a19.14,19.14,0,0,1-8.16,5.13c-.84.28-9.77,2-19.86,3.94-13.86,2.6-18.46,3.55-18.88,3.9a3.74,3.74,0,0,0,.38,6.33c.32.17,6.72,2,14.14,4s13.81,3.9,14.2,4.08A7.76,7.76,0,0,1,225,84.33c.92,1.82.92,2.07-2.32,16.91-1.65,7.59-3,14.16-3,14.69a3.76,3.76,0,0,0,4.64,3.52c1-.28,1-.32,14.38-12.62,7.07-6.51,7.74-7,10.09-7a6.53,6.53,0,0,1,4.08,1.44c.28.28,4.5,4.92,9.32,10.34,6.15,6.92,9,10,9.52,10.16a4.08,4.08,0,0,0,3.31-.14,3.26,3.26,0,0,0,2-2.82c.1-1.19,0-1.47-7.42-22.21-6.71-18.78-7.1-20.22-7.1-26.58a27,27,0,0,1,.77-7.24,91.26,91.26,0,0,0,2.29-18.46,81.53,81.53,0,0,0-4.89-30.66,78,78,0,0,0-5.2-11.11,5.61,5.61,0,0,0-6.3-2.32Z"/><path class="cls-1" d="M193,81.1c-2,.63-3.13,1.61-5.13,4.57a46.07,46.07,0,0,1-5.77,6.82c-13.85,14.34-37.68,28.16-66.58,38.6-8.76,3.13-21,6.93-27.32,8.4-12,2.81-20.6,6.4-29.35,12.27a80.75,80.75,0,0,0-35.51,58.82,108.18,108.18,0,0,0-.11,15.78A81.58,81.58,0,0,0,60.08,287a80.54,80.54,0,0,0,75.55,6.54c10.3-4.36,25.66-14.62,38.88-25.91,24.33-20.81,48.37-50.27,67.68-83C253,166.32,261.94,147,266.27,132.71c1.16-3.9,1.26-4.64.74-6.4-.32-1.09-.71-1.51-4.15-5-2.08-2.07-5.31-5.45-7.1-7.52-3.84-4.33-4.43-4.71-7-4.85s-2.88,0-11.29,7.87c-4,3.8-7.87,7.21-8.54,7.67a9.18,9.18,0,0,1-6,1.68c-2.25,0-2.39,0-4-.84a9.67,9.67,0,0,1-5.73-8.93c0-1.58.35-3.45,2.32-12.37,2.46-11,2.64-12.2,2-14.1A7.9,7.9,0,0,0,214,86.13c-.63-.29-4.25-1.34-8.09-2.43-11.28-3.2-11.11-3.13-12.93-2.57Z"/></svg>