<svg xmlns="http://www.w3.org/2000/svg" xmlns:xlink="http://www.w3.org/1999/xlink" version="1.1" x="0px" y="0px" viewBox="0 0 100 100" enable-background="new 0 0 100 100" xml:space="preserve"><path fill-rule="evenodd" clip-rule="evenodd" d="M78.181,77.655H49.435c-1.501,4.186-5.493,7.186-10.196,7.186  c-4.703,0-8.694-3-10.195-7.186h-7.225c-1.689,0-3.058-1.369-3.058-3.058v-1.2c0-1.689,1.369-3.058,3.058-3.058h7.228  c1.503-4.182,5.493-7.178,10.192-7.178c4.7,0,8.689,2.996,10.193,7.178h28.749c1.689,0,3.058,1.369,3.058,3.058v1.2  C81.24,76.285,79.87,77.655,78.181,77.655z M39.239,70.402c-1.987,0-3.597,1.611-3.597,3.598s1.611,3.598,3.597,3.598  c1.987,0,3.598-1.611,3.598-3.598S41.227,70.402,39.239,70.402z M78.181,53.654h-7.146c-1.501,4.186-5.493,7.186-10.196,7.186  c-4.703,0-8.695-3-10.196-7.186H21.819c-1.689,0-3.058-1.369-3.058-3.058v-1.2c0-1.689,1.369-3.058,3.058-3.058h28.828  c1.504-4.182,5.493-7.178,10.193-7.178c4.699,0,8.689,2.996,10.192,7.178h7.15c1.689,0,3.058,1.369,3.058,3.058v1.2  C81.24,52.285,79.87,53.654,78.181,53.654z M60.84,46.402c-1.987,0-3.598,1.611-3.598,3.598c0,1.987,1.611,3.598,3.598,3.598  c1.987,0,3.597-1.611,3.597-3.598C64.437,48.013,62.826,46.402,60.84,46.402z M78.181,29.654H49.435  c-1.501,4.186-5.493,7.186-10.196,7.186c-4.703,0-8.694-3-10.196-7.186h-7.225c-1.689,0-3.058-1.369-3.058-3.058v-1.2  c0-1.689,1.369-3.058,3.058-3.058h7.228c1.504-4.182,5.493-7.178,10.192-7.178c4.699,0,8.689,2.996,10.193,7.178h28.749  c1.689,0,3.058,1.369,3.058,3.058v1.2C81.24,28.285,79.87,29.654,78.181,29.654z M39.239,22.402c-1.987,0-3.597,1.611-3.597,3.598  s1.611,3.598,3.597,3.598c1.987,0,3.598-1.611,3.598-3.598S41.227,22.402,39.239,22.402z"></path></svg>