<svg xmlns="http://www.w3.org/2000/svg" xmlns:xlink="http://www.w3.org/1999/xlink" version="1.1" x="0px" y="0px" viewBox="0 0 100 100" enable-background="new 0 0 100 100" xml:space="preserve"><g><path d="M2.433,92.025c-0.417,0-0.834-0.154-1.159-0.465c-0.673-0.641-0.698-1.705-0.057-2.377l23.786-24.967   c0.64-0.672,1.706-0.695,2.376-0.057c0.672,0.639,0.698,1.705,0.058,2.377L3.651,91.504C3.321,91.852,2.877,92.025,2.433,92.025   L2.433,92.025z"></path><path d="M50.004,92.025c-0.928,0-1.682-0.752-1.682-1.682V65.723c0-0.93,0.753-1.682,1.682-1.682c0.929,0,1.682,0.752,1.682,1.682   v24.621C51.687,91.273,50.933,92.025,50.004,92.025L50.004,92.025z"></path><path d="M97.576,92.025c-0.441,0-0.881-0.172-1.21-0.514L72.3,66.545c-0.646-0.67-0.626-1.734,0.042-2.379   c0.67-0.643,1.735-0.625,2.379,0.043l24.066,24.967c0.644,0.67,0.624,1.734-0.044,2.379C98.417,91.869,97.995,92.025,97.576,92.025   L97.576,92.025z"></path><path d="M81.865,92.025c-0.538,0-1.067-0.26-1.393-0.738l-16.747-24.75c-0.521-0.77-0.32-1.814,0.45-2.334   c0.768-0.521,1.814-0.32,2.334,0.451l16.746,24.748c0.522,0.77,0.319,1.814-0.449,2.334C82.518,91.932,82.19,92.025,81.865,92.025   L81.865,92.025z"></path><path d="M66.306,92.025c-0.688,0-1.334-0.426-1.58-1.109l-8.951-24.73c-0.315-0.873,0.136-1.838,1.01-2.154   c0.872-0.312,1.837,0.137,2.152,1.01l8.951,24.732c0.316,0.871-0.136,1.836-1.01,2.15C66.689,91.992,66.496,92.025,66.306,92.025   L66.306,92.025z"></path><g><g><path d="M73.604,24.426l0.011-0.006l-0.002-0.004l1.776-0.873c3.145-1.357,6.829-0.034,8.339,3.08     c1.502,3.095,0.281,6.778-2.692,8.425l2.285,4.707l-1.832,0.889L73.604,24.426z"></path><path d="M77.703,36.694c-3.167,1.457-6.931,0.131-8.458-3.02c-1.518-3.125-0.258-6.867,2.798-8.476h-0.001l0.012-0.006     c0.019-0.011,0.035-0.021,0.054-0.031L77.703,36.694z"></path></g></g><path d="M25.619,43.068h-6.772V9.623c0-0.911-0.738-1.649-1.649-1.649c-0.911,0-1.649,0.738-1.649,1.649v33.445H8.783L8.777,54.064   c0,0,0.022,3.562,2.297,6.23c2.583,3.029,6.13,3.801,6.13,3.801s3.535-0.771,6.117-3.801c2.276-2.668,2.307-6.225,2.307-6.225   L25.619,43.068z"></path></g><g><path d="M31.418,71.539V67.6L16.861,89.41c-0.516,0.771-0.307,1.816,0.465,2.332c0.288,0.189,0.611,0.283,0.933,0.283   c0.542,0,1.076-0.264,1.4-0.748L31.635,73.33C31.496,72.764,31.418,72.17,31.418,71.539z"></path><path d="M66.523,54.691l-6.978-7.116l7.045-10.312c1.228-1.866,1.495-5.441-0.333-7.63c-1.49-1.785-9.822-8.021-20.608-3.049   c-7.565,3.487-11.657,10.348-11.657,17.513v27.1c0,1.438,0.5,2.639,1.5,3.613c0.999,0.965,2.185,1.449,3.562,1.449   c1.437,0,2.656-0.484,3.655-1.449c0.999-0.975,1.5-2.176,1.5-3.613V48.189c0,0-0.21-6.39,7.721-8.823   c2.615-0.802,5.21,0.063,5.709,0.319l-4.967,7.268c-0.594,1.272-0.305,2.78,0.718,3.741l8.692,8.725   c0.626,0.59,1.424,0.881,2.22,0.881c0.865,0,1.727-0.342,2.365-1.023C67.895,57.973,67.83,55.918,66.523,54.691z"></path><path d="M39.029,78.82c-0.909,0-1.759-0.143-2.559-0.412l-4.118,11.363c-0.316,0.873,0.135,1.838,1.008,2.152   c0.189,0.068,0.383,0.102,0.573,0.102c0.687,0,1.332-0.426,1.581-1.109l4.4-12.139C39.625,78.803,39.332,78.82,39.029,78.82z"></path></g></svg>