<svg xmlns="http://www.w3.org/2000/svg" xmlns:xlink="http://www.w3.org/1999/xlink" width="100" height="100" viewBox="0 0 100 100"><g><g transform="translate(50 50) scale(0.69 0.69) rotate(-180) translate(-50 -50)" style="fill:#000000"><svg fill="#000000" xmlns="http://www.w3.org/2000/svg" xmlns:xlink="http://www.w3.org/1999/xlink" version="1.1" x="0px" y="0px" viewBox="0 0 32 32" enable-background="new 0 0 32 32" xml:space="preserve"><path d="M7,2h18c3.96,0,5,3.27,5,5v3c0,0.55-0.45,1-1,1s-1-0.45-1-1V7.01C27.99,6.5,27.82,4,25,4H7.01C6.5,4.01,4,4.18,4,7v17.99  C4.01,25.5,4.18,28,7,28h17.99C25.5,27.99,28,27.82,28,25v-3c0-0.55,0.45-1,1-1s1,0.45,1,1v3c0,3.96-3.27,5-5,5H7  c-3.96,0-5-3.27-5-5V7C2,3.04,5.27,2,7,2z M19.55,9.17c-0.46-0.31-1.08-0.18-1.38,0.28c-0.31,0.45-0.18,1.08,0.28,1.38  c2.08,1.39,4.04,3.06,4.97,4.17H9c-0.55,0-1,0.45-1,1s0.45,1,1,1h14.42c-0.93,1.11-2.89,2.78-4.97,4.17  c-0.46,0.3-0.59,0.93-0.28,1.38C18.36,22.84,18.68,23,19,23c0.19,0,0.38-0.05,0.55-0.17C21.49,21.54,26,18.29,26,16  C26,13.71,21.49,10.46,19.55,9.17z"></path></svg></g></g></svg>