<svg xmlns="http://www.w3.org/2000/svg" xmlns:xlink="http://www.w3.org/1999/xlink" version="1.1" x="0px" y="0px" viewBox="0 0 100 100" style="enable-background:new 0 0 100 100;" xml:space="preserve"><style type="text/css">
	.st0{display:none;}
</style><path d="M41,2H7C4.243,2,2,4.243,2,7v34c0,2.757,2.243,5,5,5h34c2.757,0,5-2.243,5-5V7C46,4.243,43.757,2,41,2z"></path><path d="M93,54H59c-2.757,0-5,2.243-5,5v34c0,2.757,2.243,5,5,5h34c2.757,0,5-2.243,5-5V59C98,56.243,95.757,54,93,54z"></path><path d="M4,54c-1.104,0-2,0.896-2,2v40c0,1.104,0.896,2,2,2s2-0.896,2-2V56C6,54.896,5.104,54,4,54z"></path><path d="M44,54c-1.104,0-2,0.896-2,2v40c0,1.104,0.896,2,2,2s2-0.896,2-2V56C46,54.896,45.104,54,44,54z"></path><path d="M54,4v40c0,1.104,0.896,2,2,2s2-0.896,2-2V4c0-1.104-0.896-2-2-2S54,2.896,54,4z"></path><path d="M96,2c-1.104,0-2,0.896-2,2v40c0,1.104,0.896,2,2,2s2-0.896,2-2V4C98,2.896,97.104,2,96,2z"></path></svg>