<svg xmlns="http://www.w3.org/2000/svg" xmlns:xlink="http://www.w3.org/1999/xlink" version="1.1" x="0px" y="0px" viewBox="0 0 100 100" style="enable-background:new 0 0 100 100;" xml:space="preserve"><style type="text/css">
	.st0{display:none;}
</style><path d="M73.334,46.465L53.535,26.666c-1.949-1.949-5.121-1.949-7.07,0L26.666,46.465c-1.95,1.949-1.95,5.121,0,7.07l19.799,19.799  c0.975,0.975,2.255,1.462,3.535,1.462s2.561-0.488,3.535-1.462l19.799-19.799C75.284,51.586,75.284,48.414,73.334,46.465z"></path><path d="M34.414,22.414L49.293,7.535c0.39-0.39,1.024-0.39,1.414,0l14.879,14.879C65.976,22.805,66.488,23,67,23  s1.024-0.195,1.414-0.586c0.781-0.781,0.781-2.047,0-2.828L53.535,4.707c-1.949-1.949-5.121-1.949-7.07,0L31.586,19.586  c-0.781,0.781-0.781,2.047,0,2.828C32.366,23.195,33.634,23.195,34.414,22.414z"></path><path d="M65.586,77.586L50.707,92.465c-0.39,0.39-1.024,0.39-1.414,0L34.414,77.586c-0.78-0.781-2.048-0.781-2.828,0  c-0.781,0.781-0.781,2.047,0,2.828l14.879,14.879c0.975,0.975,2.255,1.462,3.535,1.462s2.561-0.488,3.535-1.462l14.879-14.879  c0.781-0.781,0.781-2.047,0-2.828C67.634,76.805,66.366,76.805,65.586,77.586z"></path><path d="M22.414,34.414c0.781-0.781,0.781-2.047,0-2.828c-0.78-0.781-2.048-0.781-2.828,0L4.707,46.465  c-1.95,1.949-1.95,5.121,0,7.07l14.879,14.879C19.976,68.805,20.488,69,21,69s1.024-0.195,1.414-0.586  c0.781-0.781,0.781-2.047,0-2.828L7.535,50.707c-0.39-0.39-0.39-1.024,0-1.414L22.414,34.414z"></path><path d="M77.586,65.586c-0.781,0.781-0.781,2.047,0,2.828C77.976,68.805,78.488,69,79,69s1.024-0.195,1.414-0.586l14.879-14.879  c1.95-1.949,1.95-5.121,0-7.07L80.414,31.586c-0.78-0.781-2.048-0.781-2.828,0c-0.781,0.781-0.781,2.047,0,2.828l14.879,14.879  c0.39,0.39,0.39,1.024,0,1.414L77.586,65.586z"></path></svg>